<svg xmlns="http://www.w3.org/2000/svg" viewBox="0 0 338.23 595.07"><defs><style>.cls-1,.cls-3,.cls-4{fill:none;stroke:#000;}.cls-1,.cls-3{stroke-miterlimit:10;}.cls-1{stroke-width:3px;}.cls-2{fill:#c1272d;}.cls-3{stroke-width:2.98px;}.cls-4{stroke-linecap:round;stroke-linejoin:round;stroke-width:0.5px;}</style></defs><title>Asset 2</title><g id="Layer_2" data-name="Layer 2"><g id="sketch"><path d="M254.86,282a5.14,5.14,0,0,0-6.39.88c-1.84,2.09-.71,5.32,1.51,6.61a4,4,0,0,0,5.84-2.21,3.71,3.71,0,0,0-3.05-5A1.44,1.44,0,0,0,252,285c.91.52.62,2.4-.64,1.51a1.37,1.37,0,0,1-.29-2.07,2.74,2.74,0,0,1,3-.71c1,.35,1.62-1.18.73-1.73Z"/><path d="M260.46,299.76a2.13,2.13,0,0,0-.19-3.08,2.72,2.72,0,0,0-3.88,0c-2,1.86-2.19,6.29.24,7.86a4.47,4.47,0,0,0,6.43-2c1-2.73-1.21-6.37-4.28-6.11a1.38,1.38,0,0,0-.69,2.55c.68.4,1.72,1.06,1.84,1.92s-.51,1-1.11,1a1,1,0,0,1-.55-.13c-.38-.39-.23-1.37-.17-1.84,0-.29.2-1,.38-1.08s.2,0,.29,0c.24,0,.12,0,.09,0-.36.92,1,1.53,1.58.92Z"/><path d="M168,3c81.42,0,147.41,19.77,165.69,25.83a2.3,2.3,0,0,1,1.57,2.43L281,567a2.31,2.31,0,0,1-1.35,1.88,270.3,270.3,0,0,1-109.84,23.19c-56.14,0-97.71-16.93-109.12-22.12a2.33,2.33,0,0,1-1.35-1.87L3,37.83a2.27,2.27,0,0,1,1.33-2.31C52.48,13.94,107.52,3,168,3m0-3C116.16,0,58.33,8,3.12,32.78A5.27,5.27,0,0,0,0,38.15L56.31,568.4a5.32,5.32,0,0,0,3.09,4.28c10.94,5,53.28,22.39,110.36,22.39a273.21,273.21,0,0,0,111.05-23.45,5.31,5.31,0,0,0,3.12-4.32L338.2,31.56A5.31,5.31,0,0,0,334.59,26C317.81,20.42,250.56,0,168,0Z"/><path class="cls-1" d="M1.63,35c10.59,2.83,173.93,44.81,335-6.64"/><circle class="cls-1" cx="171.63" cy="310.36" r="101.5"/><path d="M85.94,347.37c-3.55-11.87-6.39-27.42-1.9-39.46,4-10.66,12.63-18.95,19.13-28.06A54.6,54.6,0,0,0,110.75,266c1.45-4.25.57-7.76-.25-12-.55-2.85-1.07-6.49-3.21-8.68s-6.09-2.16-7.47.89c-1.73,3.8-1.49,10.32-1.77,14.4a170.08,170.08,0,0,0-.2,20.17c.26,5.19.71,10.38,1.48,15.53.72,4.82,1.44,10.48,5.5,13.73,9.43,7.56,19.18-3,20.76-12,1.41-8-.53-24.67-12.27-23.54-3.76.36-8,3.27-7.56,7.47.54,5,6.35,4.7,9.54,2.43,4.24-3,6.35-9,8.81-13.37,3.22-5.75,6.7-11.28,13.42-13.13a2.58,2.58,0,0,0,.61-4.65c-4.87-3.52-9.05,2.16-10.58,6.29a33.71,33.71,0,0,0-.62,21.34c1.46,4.71,4.93,9.67,10.57,8.6,6.23-1.19,8.56-8.81,9.44-14.17,1.1-6.74.32-15.47-3.84-21.15-2.68-3.67-8.41-5.79-12-2-3.16,3.31-.37,7.81,3.45,8.78,6,1.53,10.25-4.33,13.39-8.43a73,73,0,0,0,10.54-19.2c1.71-4.67,5-12.45,1.82-17.22a5.49,5.49,0,0,0-9.33.3c-1.49,2.4-1.41,5.71-1.6,8.4q-.53,7.15-.69,14.32a247,247,0,0,0,1,26.79c.55,6.36,1.09,13.54,7,17.38,5.16,3.36,11.07,2,15.23-2.25,4.37-4.44,5.87-10.65,6.17-16.68s.82-14.63-4.32-18.83c-3.79-3.1-10.89-2.94-12,2.83-1.27,6.71,7,7.13,11.36,5.53,6.52-2.39,16.32-13.19,23.51-6.93l3.54-3.54c-6.41-5.49-12.27,3.33-15,8.3A75.1,75.1,0,0,0,179.26,265c-1.18,3.62-3.77,9.7-2.05,13.48,3.25,7.15,11.11.41,13.78-3.35,7.23-10.2,14.38-20.45,21.58-30.68l-4.94-2.08-6.75,28.44c-1.11,4.66-5.26,15,2.5,16.43,2.61.49,5-.82,7-2.33,3.5-2.64,6.69-5.6,10.34-8.06a101,101,0,0,1,11-6.44c2.32-1.17,16.84-8.41,16.05-1.26-.4,3.67,5.24,3.57,5.7,0,.84-6.49-6.33-9.47-11.72-8.74-7.8,1.06-16,6.44-22.44,10.7a107.54,107.54,0,0,0-9.33,6.92c-1.38,1.14-4.27,5.2-5.65,1.83-.49-1.19,1.25-5.3,1.56-6.64l6.91-29.41a2.71,2.71,0,0,0-4.94-2.08c-7.33,10.46-14.08,21.92-22.26,31.71-1,1.14-2.59,3.88-3.32.45-.18-.84.53-2.53.73-3.37a69.53,69.53,0,0,1,2.55-8.24c.67-1.75,7.63-18.41,10.94-15.34,2.36,2.18,5.89-1.32,3.54-3.54-3.69-3.47-8.74-4.11-13.54-2.78a27,27,0,0,0-7.61,3.82c-1.24.82-9.4,5.62-9.35,4.82.07-1,1.93,1.42,2,1.48a9.06,9.06,0,0,1,.93,3.15,32.57,32.57,0,0,1,.35,4.64,42.22,42.22,0,0,1-.63,10.79,14.67,14.67,0,0,1-5,8.7c-5.58,4.31-10.2-.71-11.26-6.16-1.58-8.1-1.51-16.86-1.67-25.1s-1-17.53.4-25.78c.51-3.05,1.67-1.49,1.72.6,0,1.48-.77,3.41-1.18,4.83a67.7,67.7,0,0,1-4.52,11.79,69.82,69.82,0,0,1-5.14,8.67,64.47,64.47,0,0,1-4.28,5.51,16.92,16.92,0,0,1-1.41,1.57c-1,.89-3.38,1.19-4,1.93-.08.1-4.29-2.85,1.22.66,2.3,1.46,2.41,1.79,3.31,4.61a29.39,29.39,0,0,1,1.3,7.2c.21,3.67-.11,12.13-3.54,14.48-1.1.75-3.68.24-4.44-.42s-1.09-2.11-1.39-3a28.2,28.2,0,0,1-1.3-6.76c-.06-.87,1.37-17.16,4.51-15l.61-4.65c-6.35,1.88-10.88,6-14.49,11.42-1.78,2.7-3.2,5.61-4.72,8.45-.8,1.5-1.57,3-2.49,4.47,0,.06-1.88,2.52-1.89,2.49s3.24.75,3.72,1.07c7.07,4.72,5,29.2-6.16,25.44-4.22-1.42-4.31-8-4.81-11.69-.56-4.09-.91-8.2-1.13-12.32a198.4,198.4,0,0,1,.12-25.38c.12-1.63.26-3.25.45-4.87a30.2,30.2,0,0,0,.42-3.1l-2,.36.37.66c-.34,1.6,1.61,5.71,1.95,7.55,1.42,7.81-3.36,14.6-7.77,20.74s-9.38,11.79-13.42,18.15c-10.06,15.83-7.92,34.82-2,51.9.78,2.26,4.31,1.34,3.62-1Z"/><path class="cls-2" d="M98,326.72c11.36,16.74,12.45,37.5,18.83,56.21,1,3,5.86,1.73,4.82-1.33-6.53-19.14-7.71-40.28-19.34-57.41-1.8-2.65-6.13-.15-4.32,2.52Z"/><path class="cls-2" d="M120.94,381.49a232.73,232.73,0,0,1,.54-29.53q.65-7.74,1.85-15.43c.8-5.1,1.3-10.82,3.61-15.5l-3.42.9c2.45,1.19,2.48,7.22,2.88,9.44q.93,5.16,1.76,10.34,1.75,11,3,22c.37,3.16,5.37,3.2,5,0-1.06-9.06-2.31-18.09-3.82-27.09-.73-4.35-1.31-8.85-2.37-13.14-.63-2.56-1.48-4.66-4-5.86a2.54,2.54,0,0,0-3.42.9c-4.32,8.71-4.82,20.07-5.79,29.65a231.91,231.91,0,0,0-.9,33.32c.14,3.21,5.14,3.22,5,0Z"/><path class="cls-2" d="M133.81,346.5a88.39,88.39,0,0,1,5.93-25.67q.89-2.23,1.91-4.39l.56,1.46c1.14,1.7,1.1,6.74,1.32,8.64.47,4.05.75,8.12.94,12.19.8,17.29-.17,34.63,1.94,51.85a2.53,2.53,0,0,0,4.66,1.26c4.34-5.81,3.74-16.08,4.54-22.93q1.68-14.35,3.1-28.72c.32-3.2-4.68-3.18-5,0q-1.23,12.39-2.64,24.76-.68,5.94-1.4,11.87c-.5,4.08-.37,9.09-2.92,12.49l4.66,1.26c-2.86-23.35,0-47-3.73-70.3-.5-3.18-.78-7.65-4.31-9-3.17-1.23-5.1.87-6.41,3.47-4.92,9.76-7.27,21-8.15,31.77-.26,3.21,4.74,3.19,5,0Z"/><path class="cls-2" d="M153.61,334.59a339.28,339.28,0,0,0,5.27,35.16,2.53,2.53,0,0,0,3.67,1.49c3.47-1.75,3.23-7.39,3.87-10.71q1.68-8.7,3.5-17.37,1.71-8.19,3.54-16.36c.42-1.86,2.7-16.38,4-16.58l-3.08-1.75c2.66,7.38,2.14,15.69,2.21,23.44.07,8-.36,15.88-1.06,23.81-1.34,15.11-2.6,30.45,2.7,45,.49,1.34,2.28,2.55,3.67,1.49,7.08-5.39,8.81-16.78,11.33-24.82q5.19-16.59,9.22-33.51c.75-3.13-4.07-4.46-4.82-1.33q-3.4,14.16-7.56,28.12-2,6.75-4.25,13.44c-1.46,4.39-2.54,10.81-6.44,13.78l3.67,1.49c-5.61-15.38-3.52-31.53-2.2-47.46a234.25,234.25,0,0,0,.68-23.84c-.13-7,.08-14.24-2.33-20.94a2.6,2.6,0,0,0-3.08-1.75c-3.9.57-4.17,5.47-4.89,8.55q-2.13,9.11-4.12,18.25-1.88,8.66-3.64,17.35-1,4.83-1.91,9.66c-.28,1.42-.63,7.24-1.57,7.72l3.67,1.49a326.41,326.41,0,0,1-5.09-33.83c-.31-3.17-5.31-3.21-5,0Z"/><path class="cls-2" d="M201.07,345.32a30.94,30.94,0,0,0,12.51-12.06c2-3.54,5.56-11.32,3.16-15.35-2.68-4.5-8.48-.26-10.62,2.37-4.15,5.1-5.87,12.55-7.55,18.76a137.4,137.4,0,0,0-4,22.09c-.63,6.27-1.36,13.33,1.55,19.17,2,4.09,6.06,7.45,10.42,4.31,5.13-3.69,6.94-12.78,8.92-18.31,6.64-18.55,12.07-37.49,17.49-56.42.89-3.1-3.94-4.42-4.82-1.33-3.91,13.66-7.82,27.32-12.2,40.83-2.19,6.76-4.48,13.48-7,20.14-.91,2.47-2.38,9.5-5,10.78-3.59,1.73-4.71-6.63-4.84-8.45-.93-13,2.59-27.12,6.72-39.32a32.93,32.93,0,0,1,3.64-8.36l1.35-1.64q2.14-.27,1,1.63c.08,1.12-.77,2.7-1.17,3.7A25.87,25.87,0,0,1,198.55,341c-2.84,1.52-.32,5.84,2.52,4.32Z"/><path class="cls-2" d="M228.9,312.47a6.1,6.1,0,0,0,4.24.83c2.33-.39,4.11-2.67,6.45-2.78l-2.16-3.76a159,159,0,0,0-12.07,34.14c-1.74,7.73-6.31,22.9,0,29.66,7,7.59,12.7-7.27,15-11.68,2.86-5.59,5.62-11.23,8.63-16.74,1.43-2.62,2.9-5.21,4.47-7.75,1.18-1.92,3.93-5,4.24-7-.49,3.15,4.32,4.5,4.82,1.33.43-2.71.35-6-2.76-7.06-3.5-1.21-5.54,2.54-7.2,4.95-6.64,9.59-11.6,20.2-16.92,30.54-1.23,2.39-2.44,4.8-3.78,7.13-.68,1.19-1,3-2.48,2.61s-1.58-3.83-1.65-4.79c-.47-6,.89-12.23,2.14-18.1a153.18,153.18,0,0,1,12-34.72c.77-1.6-.13-3.86-2.16-3.76-1.84.09-7,3.23-8.17,2.63-2.85-1.49-5.38,2.82-2.52,4.32Z"/><path class="cls-2" d="M200.17,293.21c-8.58,17-18.14,33.89-25.17,51.63s-13.92,35.5-19,53.86c-.86,3.11,4,4.43,4.82,1.33,4.94-17.81,11.62-35,18.38-52.24,7-17.91,16.66-34.9,25.31-52.07,1.44-2.87-2.87-5.4-4.32-2.52Z"/><path class="cls-2" d="M154.06,312.7l0,.15a2.5,2.5,0,0,0,1.75,1.75,2.79,2.79,0,0,0,3.55-3.24c-.6-2.21-3.14-2.79-5.11-2.28a7.58,7.58,0,0,0-5.1,9.29c1.12,3.51,5.67,5.45,8.81,3.26,2.89-2,2.77-6.81-.43-8.46-2.86-1.47-5.39,2.84-2.52,4.32.14.07.09,0,0,.18.2-.35.07,0-.17-.11a1.45,1.45,0,0,1-.68-.35,1.72,1.72,0,0,1-.09-1.86,2.75,2.75,0,0,1,.67-1,1.43,1.43,0,0,1,.55-.38q.91-.16-.48-.72v-2.52l-.1.16,1.49-1.15-.2.06h1.33l-.18,0,1.75,1.75,0-.15c-.76-3.12-5.59-1.8-4.82,1.33Z"/><path d="M181.5,286.19a9,9,0,0,0-9.09,4.55c-1.57,3.07.33,6.67,3.39,7.87a5.57,5.57,0,0,0,7.29-3.3c.82-2.12.42-7.47-3-6.57a1.32,1.32,0,0,0-.94.94c-.27,1.33.77,2.17.72,3.45a2.07,2.07,0,0,1-2.58,2.13,2.61,2.61,0,0,1-1.47-4A8.33,8.33,0,0,1,181.5,288c.9-.12.84-1.59,0-1.76Z"/><path d="M228,284a5.58,5.58,0,0,0-7.23,1,5.34,5.34,0,0,0,1.15,7.79,5.69,5.69,0,0,0,7.72-.6c1.8-2.08,2.18-5.87-.05-7.8a1.82,1.82,0,0,0-2.85,2.2,2.57,2.57,0,0,1,.13,2.89,1.83,1.83,0,0,1-2.71.16c-2.48-1.93.8-4.45,3-3.6,1.24.48,1.78-1.34.85-2Z"/><path d="M90.88,356.5c-1.68.72-1.91,3.36-1.3,4.83a3.94,3.94,0,0,0,4.85,2.17,3.66,3.66,0,0,0,2.68-4.42c-.48-1.74-2.76-3.9-4.61-2.55a1.08,1.08,0,0,0,.25,1.95c.74.3,1.69.45,1.86,1.4.13.73-.59,1.17-1.24,1.25a1.86,1.86,0,0,1-2-1c-.47-1.08.1-1.88.49-2.85.24-.61-.52-1-1-.76Z"/><path d="M100.05,370.61c-3.69,1.55-2.27,8.5,2,7.42,4.88-1.22,4.72-9.4.06-10.75a1.23,1.23,0,0,0-1.18,2c1.23,1.43,2.87,3.68,1.06,5.42-1.43,1.37-1.64-1.37-.83-2.18s0-2.41-1.13-1.94Z"/><path class="cls-3" d="M333.63,63.36c-156.25,48.93-313.86,10-329.31,6l-.69-.19"/><path class="cls-4" d="M56.63,568.36s99-25,227-1"/></g></g></svg>